<svg id="Layer_1" data-name="Layer 1" xmlns="http://www.w3.org/2000/svg" xmlns:xlink="http://www.w3.org/1999/xlink" viewBox="0 0 826 211"><defs><style>.cls-1{fill:none;}.cls-2{fill:#de282d;}.cls-3{clip-path:url(#clip-path);}</style><clipPath id="clip-path"><rect class="cls-1" x="16.5" y="14.47" width="793" height="182.06"/></clipPath></defs><path id="Path_1" data-name="Path 1" class="cls-2" d="M103.3,76.44H90.93v24.81H177.7V88.88H103.3Z"/><g id="Group_2" data-name="Group 2"><g class="cls-3"><g id="Group_1" data-name="Group 1"><path id="Path_2" data-name="Path 2" class="cls-2" d="M41.33,14.47a23.56,23.56,0,0,0-9.55,2A25.76,25.76,0,0,0,18.46,29.74a23.6,23.6,0,0,0-2,9.55,24.48,24.48,0,0,0,7.35,17.5,26.45,26.45,0,0,0,7.92,5.3,23.73,23.73,0,0,0,9.55,2h3L16.5,101.25H32.08L59.84,64H165.26V51.67H41.33a11.91,11.91,0,0,1-4.81-1,12.65,12.65,0,0,1-6.59-6.6,11.94,11.94,0,0,1-1-4.78,11.49,11.49,0,0,1,1-4.76,13.12,13.12,0,0,1,2.7-3.93,12.79,12.79,0,0,1,3.93-2.69,11.48,11.48,0,0,1,4.75-1H90.9v12.4h12.37V26.92h74.44V14.47Z"/><path id="Path_3" data-name="Path 3" d="M208.63,14.47h43.46a43.4,43.4,0,0,1,0,86.8H208.63V14.47Zm43.45,74.41A29.58,29.58,0,0,0,264,86.42a31.42,31.42,0,0,0,9.86-6.69,32.18,32.18,0,0,0,6.65-9.85,30.33,30.33,0,0,0,0-23.93,32,32,0,0,0-6.65-9.88,31.34,31.34,0,0,0-9.86-6.7,29.41,29.41,0,0,0-11.91-2.46H221v62Z"/><path id="Path_4" data-name="Path 4" d="M326.33,14.47h86.81V26.92H338.72V51.66h62V64h-62V88.87h74.42v12.37H326.33V14.47Z"/><path id="Path_5" data-name="Path 5" d="M444,14.47H530.8V26.92H456.4V51.66h62V64h-62v37.22H444Z"/><rect id="Rectangle_1" data-name="Rectangle 1" x="561.72" y="14.47" width="12.38" height="86.8"/><path id="Path_6" data-name="Path 6" d="M679.36,14.47H691.8v86.8H679.36l-62-68.36v68.36H605V14.47h12.37l62,68.35Z"/><path id="Path_7" data-name="Path 7" d="M722.7,14.47h86.79V26.92H735.08V51.66H797V64H735.08V88.87H809.5v12.37H722.71Z"/><path id="Path_8" data-name="Path 8" class="cls-2" d="M41.57,151.63a24.09,24.09,0,0,1,6.32.81,24.54,24.54,0,0,1,5.71,2.29,26.24,26.24,0,0,1,4.91,3.53,23.41,23.41,0,0,1,3.82,4.49l-5.65,3.1a17.41,17.41,0,0,0-2.77-3.17,17.87,17.87,0,0,0-7.74-4.06,19.21,19.21,0,0,0-4.59-.55,18.64,18.64,0,0,0-12.46,4.71,16.09,16.09,0,0,0-3.8,5.09,14.54,14.54,0,0,0,0,12.43,16.13,16.13,0,0,0,3.8,5.09,18.75,18.75,0,0,0,5.61,3.45,18.26,18.26,0,0,0,6.85,1.27,18.7,18.7,0,0,0,4.65-.59,18.47,18.47,0,0,0,4.18-1.62,18.19,18.19,0,0,0,3.53-2.5,16.55,16.55,0,0,0,2.77-3.2l5.65,3.06a22.29,22.29,0,0,1-3.75,4.58,24.24,24.24,0,0,1-4.89,3.53,25.15,25.15,0,0,1-12.15,3.1,24.11,24.11,0,0,1-17-6.57,20.81,20.81,0,0,1-7-15.8,21.12,21.12,0,0,1,7-15.87,24,24,0,0,1,17-6.6"/><path id="Path_9" data-name="Path 9" class="cls-2" d="M140.14,151.63a22.52,22.52,0,1,1-15.9,6.61,21.5,21.5,0,0,1,15.9-6.61m0,6.44a15.54,15.54,0,0,0-6.23,1.27,16.58,16.58,0,0,0-5.11,3.45,16.23,16.23,0,0,0-3.46,5.09,15.79,15.79,0,0,0,0,12.43,16.23,16.23,0,0,0,3.46,5.09,16.58,16.58,0,0,0,5.11,3.45,15.54,15.54,0,0,0,6.23,1.27,15.34,15.34,0,0,0,6.16-1.27,16.23,16.23,0,0,0,5.09-3.46,16.79,16.79,0,0,0,3.45-5.09,15.64,15.64,0,0,0,0-12.37,16.58,16.58,0,0,0-3.45-5.11,16.23,16.23,0,0,0-5.09-3.46,15.17,15.17,0,0,0-6.16-1.27"/><path id="Path_10" data-name="Path 10" class="cls-2" d="M221.19,151.64h7.61l21.28,33,21.2-33h7.61v44.89h-6.4V161.62l-18.32,28.5h-8.25l-18.32-28.5v34.91h-6.4Z"/><path id="Path_11" data-name="Path 11" class="cls-2" d="M337.53,151.64h7.61l21.28,33,21.2-33h7.61v44.89h-6.4V161.62l-18.32,28.5h-8.25l-18.32-28.5v34.91h-6.4Z"/><path id="Path_12" data-name="Path 12" class="cls-2" d="M453.86,151.64h44.89v6.44H460.26v12.8h32.05v6.4H460.26v12.84h38.49v6.4H453.86Z"/><path id="Path_13" data-name="Path 13" class="cls-2" d="M557.36,151.63h32a12.18,12.18,0,0,1,4.94,1,13.21,13.21,0,0,1,6.88,6.88,12.18,12.18,0,0,1,1,4.94,12.7,12.7,0,0,1-3.8,9.06,13.73,13.73,0,0,1-4.12,2.74,12.17,12.17,0,0,1-4.94,1h-1.55l14.39,19.25h-8.06l-14.36-19.25H563.73v19.25h-6.38v-44.9Zm6.41,6.44v12.81h25.65a6.06,6.06,0,0,0,2.48-.52,6.53,6.53,0,0,0,3.41-3.41,6.06,6.06,0,0,0,.52-2.48,5.94,5.94,0,0,0-.52-2.46,6.75,6.75,0,0,0-3.43-3.43,5.94,5.94,0,0,0-2.46-.52Z"/><path id="Path_14" data-name="Path 14" class="cls-2" d="M685,151.63a24.09,24.09,0,0,1,6.32.81,24.54,24.54,0,0,1,5.71,2.29,26.24,26.24,0,0,1,4.91,3.53,23.41,23.41,0,0,1,3.82,4.49l-5.65,3.1a17.41,17.41,0,0,0-2.77-3.17,17.87,17.87,0,0,0-7.74-4.06,19.21,19.21,0,0,0-4.59-.55,18.64,18.64,0,0,0-12.46,4.71,16.09,16.09,0,0,0-3.8,5.09,14.54,14.54,0,0,0,0,12.43,16.13,16.13,0,0,0,3.8,5.09,18.75,18.75,0,0,0,5.61,3.45,18.26,18.26,0,0,0,6.85,1.27,18.7,18.7,0,0,0,4.65-.59,18.47,18.47,0,0,0,4.18-1.62,18.19,18.19,0,0,0,3.53-2.5,16.55,16.55,0,0,0,2.77-3.2l5.65,3.06a22.29,22.29,0,0,1-3.75,4.58,24.24,24.24,0,0,1-4.89,3.53,25.15,25.15,0,0,1-12.15,3.1,24.11,24.11,0,0,1-17-6.57,20.87,20.87,0,0,1-7-15.84,21.12,21.12,0,0,1,7-15.87,23.88,23.88,0,0,1,17-6.61"/><path id="Path_15" data-name="Path 15" class="cls-2" d="M764.43,151.64h44.89v6.44H770.83v12.8h32v6.4h-32v12.84h38.49v6.4H764.43Z"/></g></g></g></svg>